<?xml version="1.0" encoding="utf-8" ?>
<svg baseProfile="full" height="482.0mm" version="1.1" viewBox="0 -25 610.0 482.0" width="610.0mm" xmlns="http://www.w3.org/2000/svg" xmlns:ev="http://www.w3.org/2001/xml-events" xmlns:xlink="http://www.w3.org/1999/xlink"><defs /><g transform="translate(0,457.0) scale(1,-1)"><rect fill="white" height="457.0" stroke="black" stroke-width="1" width="610.0" x="0" y="0" /><rect fill="none" height="157.0" stroke="#2e6fbb" stroke-width="0.8" width="325.0" x="80.0" y="80.0" /><rect fill="none" height="172.8" stroke="#2e6fbb" stroke-width="0.8" width="117.30000000000001" x="480.0" y="80.0" /><rect fill="none" height="60" stroke="#2e6fbb" stroke-width="0.8" width="60" x="411.0" y="150.0" /><rect fill="none" height="65" stroke="#2a8f55" stroke-width="0.8" width="65" x="8.0" y="1.0" /><rect fill="none" height="65" stroke="#2a8f55" stroke-width="0.8" width="65" x="401.0" y="1.0" /><rect fill="none" height="65" stroke="#2a8f55" stroke-width="0.8" width="65" x="8.0" y="371.0" /><rect fill="none" height="65" stroke="#2a8f55" stroke-width="0.8" width="65" x="524.0" y="371.0" /><rect fill="none" height="65" stroke="#2a8f55" stroke-width="0.8" width="65" x="285.0" y="270.0" /><rect fill="none" height="65" stroke="#2a8f55" stroke-width="0.8" width="65" x="420.0" y="270.0" /><line stroke="#777" stroke-dasharray="4,3" x1="242.5" x2="242.5" y1="80.0" y2="237.0" /><rect fill="none" height="30" stroke="#c33" stroke-dasharray="5,3" width="160" x="225" y="427.0" /><circle cx="102.0" cy="90.0" fill="none" r="2.3" stroke="#d22" stroke-width="0.5" /><line stroke="#d22" stroke-width="0.35" x1="99.0" x2="105.0" y1="90.0" y2="90.0" /><line stroke="#d22" stroke-width="0.35" x1="102.0" x2="102.0" y1="87.0" y2="93.0" /><circle cx="220.5" cy="90.0" fill="none" r="2.3" stroke="#d22" stroke-width="0.5" /><line stroke="#d22" stroke-width="0.35" x1="217.5" x2="223.5" y1="90.0" y2="90.0" /><line stroke="#d22" stroke-width="0.35" x1="220.5" x2="220.5" y1="87.0" y2="93.0" /><circle cx="102.0" cy="227.0" fill="none" r="2.3" stroke="#d22" stroke-width="0.5" /><line stroke="#d22" stroke-width="0.35" x1="99.0" x2="105.0" y1="227.0" y2="227.0" /><line stroke="#d22" stroke-width="0.35" x1="102.0" x2="102.0" y1="224.0" y2="230.0" /><circle cx="220.5" cy="227.0" fill="none" r="2.3" stroke="#d22" stroke-width="0.5" /><line stroke="#d22" stroke-width="0.35" x1="217.5" x2="223.5" y1="227.0" y2="227.0" /><line stroke="#d22" stroke-width="0.35" x1="220.5" x2="220.5" y1="224.0" y2="230.0" /><circle cx="264.5" cy="90.0" fill="none" r="2.3" stroke="#d22" stroke-width="0.5" /><line stroke="#d22" stroke-width="0.35" x1="261.5" x2="267.5" y1="90.0" y2="90.0" /><line stroke="#d22" stroke-width="0.35" x1="264.5" x2="264.5" y1="87.0" y2="93.0" /><circle cx="383.0" cy="90.0" fill="none" r="2.3" stroke="#d22" stroke-width="0.5" /><line stroke="#d22" stroke-width="0.35" x1="380.0" x2="386.0" y1="90.0" y2="90.0" /><line stroke="#d22" stroke-width="0.35" x1="383.0" x2="383.0" y1="87.0" y2="93.0" /><circle cx="264.5" cy="227.0" fill="none" r="2.3" stroke="#d22" stroke-width="0.5" /><line stroke="#d22" stroke-width="0.35" x1="261.5" x2="267.5" y1="227.0" y2="227.0" /><line stroke="#d22" stroke-width="0.35" x1="264.5" x2="264.5" y1="224.0" y2="230.0" /><circle cx="383.0" cy="227.0" fill="none" r="2.3" stroke="#d22" stroke-width="0.5" /><line stroke="#d22" stroke-width="0.35" x1="380.0" x2="386.0" y1="227.0" y2="227.0" /><line stroke="#d22" stroke-width="0.35" x1="383.0" x2="383.0" y1="224.0" y2="230.0" /><circle cx="165.0" cy="254.5" fill="none" r="2.3" stroke="#d22" stroke-width="0.5" /><line stroke="#d22" stroke-width="0.35" x1="162.0" x2="168.0" y1="254.5" y2="254.5" /><line stroke="#d22" stroke-width="0.35" x1="165.0" x2="165.0" y1="251.5" y2="257.5" /><circle cx="320.0" cy="254.5" fill="none" r="2.3" stroke="#d22" stroke-width="0.5" /><line stroke="#d22" stroke-width="0.35" x1="317.0" x2="323.0" y1="254.5" y2="254.5" /><line stroke="#d22" stroke-width="0.35" x1="320.0" x2="320.0" y1="251.5" y2="257.5" /><circle cx="487.5" cy="115.0" fill="none" r="2.3" stroke="#d22" stroke-width="0.5" /><line stroke="#d22" stroke-width="0.35" x1="484.5" x2="490.5" y1="115.0" y2="115.0" /><line stroke="#d22" stroke-width="0.35" x1="487.5" x2="487.5" y1="112.0" y2="118.0" /><circle cx="487.5" cy="217.8" fill="none" r="2.3" stroke="#d22" stroke-width="0.5" /><line stroke="#d22" stroke-width="0.35" x1="484.5" x2="490.5" y1="217.8" y2="217.8" /><line stroke="#d22" stroke-width="0.35" x1="487.5" x2="487.5" y1="214.8" y2="220.8" /><circle cx="588.8" cy="149.12" fill="none" r="2.3" stroke="#d22" stroke-width="0.5" /><line stroke="#d22" stroke-width="0.35" x1="585.8" x2="591.8" y1="149.12" y2="149.12" /><line stroke="#d22" stroke-width="0.35" x1="588.8" x2="588.8" y1="146.12" y2="152.12" /><circle cx="588.8" cy="192.32" fill="none" r="2.3" stroke="#d22" stroke-width="0.5" /><line stroke="#d22" stroke-width="0.35" x1="585.8" x2="591.8" y1="192.32" y2="192.32" /><line stroke="#d22" stroke-width="0.35" x1="588.8" x2="588.8" y1="189.32" y2="195.32" /><circle cx="423.0" cy="160.0" fill="none" r="2.3" stroke="#d22" stroke-width="0.5" /><line stroke="#d22" stroke-width="0.35" x1="420.0" x2="426.0" y1="160.0" y2="160.0" /><line stroke="#d22" stroke-width="0.35" x1="423.0" x2="423.0" y1="157.0" y2="163.0" /><circle cx="459.0" cy="160.0" fill="none" r="2.3" stroke="#d22" stroke-width="0.5" /><line stroke="#d22" stroke-width="0.35" x1="456.0" x2="462.0" y1="160.0" y2="160.0" /><line stroke="#d22" stroke-width="0.35" x1="459.0" x2="459.0" y1="157.0" y2="163.0" /><circle cx="14.0" cy="40.0" fill="none" r="2.3" stroke="#d22" stroke-width="0.5" /><line stroke="#d22" stroke-width="0.35" x1="11.0" x2="17.0" y1="40.0" y2="40.0" /><line stroke="#d22" stroke-width="0.35" x1="14.0" x2="14.0" y1="37.0" y2="43.0" /><circle cx="80.0" cy="40.0" fill="none" r="2.3" stroke="#d22" stroke-width="0.5" /><line stroke="#d22" stroke-width="0.35" x1="77.0" x2="83.0" y1="40.0" y2="40.0" /><line stroke="#d22" stroke-width="0.35" x1="80.0" x2="80.0" y1="37.0" y2="43.0" /><circle cx="407.0" cy="40.0" fill="none" r="2.3" stroke="#d22" stroke-width="0.5" /><line stroke="#d22" stroke-width="0.35" x1="404.0" x2="410.0" y1="40.0" y2="40.0" /><line stroke="#d22" stroke-width="0.35" x1="407.0" x2="407.0" y1="37.0" y2="43.0" /><circle cx="473.0" cy="40.0" fill="none" r="2.3" stroke="#d22" stroke-width="0.5" /><line stroke="#d22" stroke-width="0.35" x1="470.0" x2="476.0" y1="40.0" y2="40.0" /><line stroke="#d22" stroke-width="0.35" x1="473.0" x2="473.0" y1="37.0" y2="43.0" /><circle cx="14.0" cy="410.0" fill="none" r="2.3" stroke="#d22" stroke-width="0.5" /><line stroke="#d22" stroke-width="0.35" x1="11.0" x2="17.0" y1="410.0" y2="410.0" /><line stroke="#d22" stroke-width="0.35" x1="14.0" x2="14.0" y1="407.0" y2="413.0" /><circle cx="80.0" cy="410.0" fill="none" r="2.3" stroke="#d22" stroke-width="0.5" /><line stroke="#d22" stroke-width="0.35" x1="77.0" x2="83.0" y1="410.0" y2="410.0" /><line stroke="#d22" stroke-width="0.35" x1="80.0" x2="80.0" y1="407.0" y2="413.0" /><circle cx="530.0" cy="410.0" fill="none" r="2.3" stroke="#d22" stroke-width="0.5" /><line stroke="#d22" stroke-width="0.35" x1="527.0" x2="533.0" y1="410.0" y2="410.0" /><line stroke="#d22" stroke-width="0.35" x1="530.0" x2="530.0" y1="407.0" y2="413.0" /><circle cx="596.0" cy="410.0" fill="none" r="2.3" stroke="#d22" stroke-width="0.5" /><line stroke="#d22" stroke-width="0.35" x1="593.0" x2="599.0" y1="410.0" y2="410.0" /><line stroke="#d22" stroke-width="0.35" x1="596.0" x2="596.0" y1="407.0" y2="413.0" /><circle cx="291.0" cy="309.0" fill="none" r="2.3" stroke="#d22" stroke-width="0.5" /><line stroke="#d22" stroke-width="0.35" x1="288.0" x2="294.0" y1="309.0" y2="309.0" /><line stroke="#d22" stroke-width="0.35" x1="291.0" x2="291.0" y1="306.0" y2="312.0" /><circle cx="357.0" cy="309.0" fill="none" r="2.3" stroke="#d22" stroke-width="0.5" /><line stroke="#d22" stroke-width="0.35" x1="354.0" x2="360.0" y1="309.0" y2="309.0" /><line stroke="#d22" stroke-width="0.35" x1="357.0" x2="357.0" y1="306.0" y2="312.0" /><circle cx="426.0" cy="309.0" fill="none" r="2.3" stroke="#d22" stroke-width="0.5" /><line stroke="#d22" stroke-width="0.35" x1="423.0" x2="429.0" y1="309.0" y2="309.0" /><line stroke="#d22" stroke-width="0.35" x1="426.0" x2="426.0" y1="306.0" y2="312.0" /><circle cx="492.0" cy="309.0" fill="none" r="2.3" stroke="#d22" stroke-width="0.5" /><line stroke="#d22" stroke-width="0.35" x1="489.0" x2="495.0" y1="309.0" y2="309.0" /><line stroke="#d22" stroke-width="0.35" x1="492.0" x2="492.0" y1="306.0" y2="312.0" /></g><text font-family="sans-serif" font-size="5px" x="83.0" y="229.0">KEYBOARD TRAY</text><text font-family="sans-serif" font-size="5px" x="483.0" y="213.2">PHONE CRADLE</text><text font-family="sans-serif" font-size="5px" x="414.0" y="256.0">TCP CALIBRATION</text><text font-family="sans-serif" font-size="5px" x="11.0" y="400.0">TAG T0</text><text font-family="sans-serif" font-size="5px" x="404.0" y="400.0">TAG T1</text><text font-family="sans-serif" font-size="5px" x="11.0" y="30.0">TAG T2</text><text font-family="sans-serif" font-size="5px" x="527.0" y="30.0">TAG T3</text><text font-family="sans-serif" font-size="5px" x="288.0" y="131.0">TAG K0</text><text font-family="sans-serif" font-size="5px" x="423.0" y="131.0">TAG P0</text><text font-family="sans-serif" font-size="3px" x="105.0" y="364.0">KB-L1</text><text font-family="sans-serif" font-size="3px" x="223.5" y="364.0">KB-L2</text><text font-family="sans-serif" font-size="3px" x="105.0" y="227.0">KB-L3</text><text font-family="sans-serif" font-size="3px" x="223.5" y="227.0">KB-L4</text><text font-family="sans-serif" font-size="3px" x="267.5" y="364.0">KB-R1</text><text font-family="sans-serif" font-size="3px" x="386.0" y="364.0">KB-R2</text><text font-family="sans-serif" font-size="3px" x="267.5" y="227.0">KB-R3</text><text font-family="sans-serif" font-size="3px" x="386.0" y="227.0">KB-R4</text><text font-family="sans-serif" font-size="3px" x="168.0" y="199.5">KB-CLAMP-1</text><text font-family="sans-serif" font-size="3px" x="323.0" y="199.5">KB-CLAMP-2</text><text font-family="sans-serif" font-size="3px" x="490.5" y="339.0">PHONE-1</text><text font-family="sans-serif" font-size="3px" x="490.5" y="236.2">PHONE-2</text><text font-family="sans-serif" font-size="3px" x="591.8" y="304.88">PHONE-3</text><text font-family="sans-serif" font-size="3px" x="591.8" y="261.68">PHONE-4</text><text font-family="sans-serif" font-size="3px" x="426.0" y="294.0">CAL-1</text><text font-family="sans-serif" font-size="3px" x="462.0" y="294.0">CAL-2</text><text font-family="sans-serif" font-size="3px" x="17.0" y="414.0">T0-A</text><text font-family="sans-serif" font-size="3px" x="83.0" y="414.0">T0-B</text><text font-family="sans-serif" font-size="3px" x="410.0" y="414.0">T1-A</text><text font-family="sans-serif" font-size="3px" x="476.0" y="414.0">T1-B</text><text font-family="sans-serif" font-size="3px" x="17.0" y="44.0">T2-A</text><text font-family="sans-serif" font-size="3px" x="83.0" y="44.0">T2-B</text><text font-family="sans-serif" font-size="3px" x="533.0" y="44.0">T3-A</text><text font-family="sans-serif" font-size="3px" x="599.0" y="44.0">T3-B</text><text font-family="sans-serif" font-size="3px" x="294.0" y="145.0">K0-A</text><text font-family="sans-serif" font-size="3px" x="360.0" y="145.0">K0-B</text><text font-family="sans-serif" font-size="3px" x="429.0" y="145.0">P0-A</text><text font-family="sans-serif" font-size="3px" x="495.0" y="145.0">P0-B</text><text font-family="sans-serif" font-size="7px" font-weight="bold" x="8" y="-8">RoCell v0.2 board fabrication layout - dimensions in mm</text><text font-family="sans-serif" font-size="5px" x="8" y="-16">Origin: front-left. +X right. +Y rear/toward arm.</text></svg>