ISO-10303-21;
HEADER;
FILE_DESCRIPTION(('Open CASCADE Model'),'2;1');
FILE_NAME('Open CASCADE Shape Model','2026-08-30T19:38:29',('Author'),(
    'Open CASCADE'),'Open CASCADE STEP processor 7.7','Open CASCADE 7.7'
  ,'Unknown');
FILE_SCHEMA(('AUTOMOTIVE_DESIGN { 1 0 10303 214 1 1 1 1 }'));
ENDSEC;
DATA;
#1 = APPLICATION_PROTOCOL_DEFINITION('international standard',
  'automotive_design',2000,#2);
#2 = APPLICATION_CONTEXT(
  'core data for automotive mechanical design processes');
#3 = SHAPE_DEFINITION_REPRESENTATION(#4,#10);
#4 = PRODUCT_DEFINITION_SHAPE('','',#5);
#5 = PRODUCT_DEFINITION('design','',#6,#9);
#6 = PRODUCT_DEFINITION_FORMATION('','',#7);
#7 = PRODUCT('Open CASCADE STEP translator 7.7 34',
  'Open CASCADE STEP translator 7.7 34','',(#8));
#8 = PRODUCT_CONTEXT('',#2,'mechanical');
#9 = PRODUCT_DEFINITION_CONTEXT('part definition',#2,'design');
#10 = ADVANCED_BREP_SHAPE_REPRESENTATION('',(#11,#15),#837);
#11 = AXIS2_PLACEMENT_3D('',#12,#13,#14);
#12 = CARTESIAN_POINT('',(0.,0.,0.));
#13 = DIRECTION('',(0.,0.,1.));
#14 = DIRECTION('',(1.,0.,-0.));
#15 = MANIFOLD_SOLID_BREP('',#16);
#16 = CLOSED_SHELL('',(#17,#404,#477,#522,#567,#599,#827));
#17 = ADVANCED_FACE('',(#18,#139),#33,.T.);
#18 = FACE_BOUND('',#19,.F.);
#19 = EDGE_LOOP('',(#20,#56,#82,#115));
#20 = ORIENTED_EDGE('',*,*,#21,.F.);
#21 = EDGE_CURVE('',#22,#24,#26,.T.);
#22 = VERTEX_POINT('',#23);
#23 = CARTESIAN_POINT('',(-0.6,6.77347768875,0.));
#24 = VERTEX_POINT('',#25);
#25 = CARTESIAN_POINT('',(0.6,6.77347768875,0.));
#26 = SURFACE_CURVE('',#27,(#32,#44),.PCURVE_S1.);
#27 = CIRCLE('',#28,6.8);
#28 = AXIS2_PLACEMENT_3D('',#29,#30,#31);
#29 = CARTESIAN_POINT('',(0.,0.,0.));
#30 = DIRECTION('',(0.,0.,1.));
#31 = DIRECTION('',(-8.823529411765E-02,0.99609966011,0.));
#32 = PCURVE('',#33,#38);
#33 = CYLINDRICAL_SURFACE('',#34,6.8);
#34 = AXIS2_PLACEMENT_3D('',#35,#36,#37);
#35 = CARTESIAN_POINT('',(0.,0.,0.));
#36 = DIRECTION('',(-0.,-0.,-1.));
#37 = DIRECTION('',(1.,0.,0.));
#38 = DEFINITIONAL_REPRESENTATION('',(#39),#43);
#39 = LINE('',#40,#41);
#40 = CARTESIAN_POINT('',(-1.659146516064,0.));
#41 = VECTOR('',#42,1.);
#42 = DIRECTION('',(-1.,0.));
#43 = ( GEOMETRIC_REPRESENTATION_CONTEXT(2) 
PARAMETRIC_REPRESENTATION_CONTEXT() REPRESENTATION_CONTEXT('2D SPACE',''
  ) );
#44 = PCURVE('',#45,#50);
#45 = PLANE('',#46);
#46 = AXIS2_PLACEMENT_3D('',#47,#48,#49);
#47 = CARTESIAN_POINT('',(-2.010941371382E-16,1.246016664696E-16,0.));
#48 = DIRECTION('',(0.,0.,1.));
#49 = DIRECTION('',(1.,0.,-0.));
#50 = DEFINITIONAL_REPRESENTATION('',(#51),#55);
#51 = CIRCLE('',#52,6.8);
#52 = AXIS2_PLACEMENT_2D('',#53,#54);
#53 = CARTESIAN_POINT('',(2.010941371382E-16,-1.246016664696E-16));
#54 = DIRECTION('',(-8.823529411765E-02,0.99609966011));
#55 = ( GEOMETRIC_REPRESENTATION_CONTEXT(2) 
PARAMETRIC_REPRESENTATION_CONTEXT() REPRESENTATION_CONTEXT('2D SPACE',''
  ) );
#56 = ORIENTED_EDGE('',*,*,#57,.F.);
#57 = EDGE_CURVE('',#58,#22,#60,.T.);
#58 = VERTEX_POINT('',#59);
#59 = CARTESIAN_POINT('',(-0.6,6.77347768875,5.5));
#60 = SURFACE_CURVE('',#61,(#65,#71),.PCURVE_S1.);
#61 = LINE('',#62,#63);
#62 = CARTESIAN_POINT('',(-0.6,6.77347768875,0.));
#63 = VECTOR('',#64,1.);
#64 = DIRECTION('',(-0.,-0.,-1.));
#65 = PCURVE('',#33,#66);
#66 = DEFINITIONAL_REPRESENTATION('',(#67),#70);
#67 = B_SPLINE_CURVE_WITH_KNOTS('',1,(#68,#69),.UNSPECIFIED.,.F.,.F.,(2,
    2),(-5.5,-0.),.PIECEWISE_BEZIER_KNOTS.);
#68 = CARTESIAN_POINT('',(-1.659146516064,-5.5));
#69 = CARTESIAN_POINT('',(-1.659146516064,0.));
#70 = ( GEOMETRIC_REPRESENTATION_CONTEXT(2) 
PARAMETRIC_REPRESENTATION_CONTEXT() REPRESENTATION_CONTEXT('2D SPACE',''
  ) );
#71 = PCURVE('',#72,#77);
#72 = PLANE('',#73);
#73 = AXIS2_PLACEMENT_3D('',#74,#75,#76);
#74 = CARTESIAN_POINT('',(-0.6,0.,-1.));
#75 = DIRECTION('',(1.,0.,0.));
#76 = DIRECTION('',(0.,0.,1.));
#77 = DEFINITIONAL_REPRESENTATION('',(#78),#81);
#78 = B_SPLINE_CURVE_WITH_KNOTS('',1,(#79,#80),.UNSPECIFIED.,.F.,.F.,(2,
    2),(-5.5000006,6.E-07),.PIECEWISE_BEZIER_KNOTS.);
#79 = CARTESIAN_POINT('',(6.5000006,-6.77347768875));
#80 = CARTESIAN_POINT('',(0.9999994,-6.77347768875));
#81 = ( GEOMETRIC_REPRESENTATION_CONTEXT(2) 
PARAMETRIC_REPRESENTATION_CONTEXT() REPRESENTATION_CONTEXT('2D SPACE',''
  ) );
#82 = ORIENTED_EDGE('',*,*,#83,.F.);
#83 = EDGE_CURVE('',#84,#58,#86,.T.);
#84 = VERTEX_POINT('',#85);
#85 = CARTESIAN_POINT('',(0.6,6.77347768875,5.5));
#86 = SURFACE_CURVE('',#87,(#92,#99),.PCURVE_S1.);
#87 = CIRCLE('',#88,6.8);
#88 = AXIS2_PLACEMENT_3D('',#89,#90,#91);
#89 = CARTESIAN_POINT('',(0.,0.,5.5));
#90 = DIRECTION('',(0.,0.,-1.));
#91 = DIRECTION('',(8.823529411765E-02,0.99609966011,0.));
#92 = PCURVE('',#33,#93);
#93 = DEFINITIONAL_REPRESENTATION('',(#94),#98);
#94 = LINE('',#95,#96);
#95 = CARTESIAN_POINT('',(-7.765631444706,-5.5));
#96 = VECTOR('',#97,1.);
#97 = DIRECTION('',(1.,-0.));
#98 = ( GEOMETRIC_REPRESENTATION_CONTEXT(2) 
PARAMETRIC_REPRESENTATION_CONTEXT() REPRESENTATION_CONTEXT('2D SPACE',''
  ) );
#99 = PCURVE('',#100,#105);
#100 = PLANE('',#101);
#101 = AXIS2_PLACEMENT_3D('',#102,#103,#104);
#102 = CARTESIAN_POINT('',(-2.010941371382E-16,1.246016664696E-16,5.5));
#103 = DIRECTION('',(0.,0.,1.));
#104 = DIRECTION('',(1.,0.,-0.));
#105 = DEFINITIONAL_REPRESENTATION('',(#106),#114);
#106 = ( BOUNDED_CURVE() B_SPLINE_CURVE(2,(#107,#108,#109,#110,#111,#112
,#113),.UNSPECIFIED.,.T.,.F.) B_SPLINE_CURVE_WITH_KNOTS((1,2,2,2,2,1),(
    -2.094395102393,0.,2.094395102393,4.188790204786,6.28318530718,
8.377580409573),.UNSPECIFIED.) CURVE() GEOMETRIC_REPRESENTATION_ITEM() 
RATIONAL_B_SPLINE_CURVE((1.,0.5,1.,0.5,1.,0.5,1.)) REPRESENTATION_ITEM(
  '') );
#107 = CARTESIAN_POINT('',(0.6,6.77347768875));
#108 = CARTESIAN_POINT('',(12.33200750085,5.734247204209));
#109 = CARTESIAN_POINT('',(5.566003750425,-3.906354086646));
#110 = CARTESIAN_POINT('',(-1.2,-13.5469553775));
#111 = CARTESIAN_POINT('',(-6.166003750425,-2.867123602105));
#112 = CARTESIAN_POINT('',(-11.13200750085,7.812708173292));
#113 = CARTESIAN_POINT('',(0.6,6.77347768875));
#114 = ( GEOMETRIC_REPRESENTATION_CONTEXT(2) 
PARAMETRIC_REPRESENTATION_CONTEXT() REPRESENTATION_CONTEXT('2D SPACE',''
  ) );
#115 = ORIENTED_EDGE('',*,*,#116,.T.);
#116 = EDGE_CURVE('',#84,#24,#117,.T.);
#117 = SURFACE_CURVE('',#118,(#122,#128),.PCURVE_S1.);
#118 = LINE('',#119,#120);
#119 = CARTESIAN_POINT('',(0.6,6.77347768875,0.));
#120 = VECTOR('',#121,1.);
#121 = DIRECTION('',(-0.,-0.,-1.));
#122 = PCURVE('',#33,#123);
#123 = DEFINITIONAL_REPRESENTATION('',(#124),#127);
#124 = B_SPLINE_CURVE_WITH_KNOTS('',1,(#125,#126),.UNSPECIFIED.,.F.,.F.,
  (2,2),(-5.5,-0.),.PIECEWISE_BEZIER_KNOTS.);
#125 = CARTESIAN_POINT('',(-7.765631444706,-5.5));
#126 = CARTESIAN_POINT('',(-7.765631444706,0.));
#127 = ( GEOMETRIC_REPRESENTATION_CONTEXT(2) 
PARAMETRIC_REPRESENTATION_CONTEXT() REPRESENTATION_CONTEXT('2D SPACE',''
  ) );
#128 = PCURVE('',#129,#134);
#129 = PLANE('',#130);
#130 = AXIS2_PLACEMENT_3D('',#131,#132,#133);
#131 = CARTESIAN_POINT('',(0.6,0.,-1.));
#132 = DIRECTION('',(1.,0.,0.));
#133 = DIRECTION('',(0.,0.,1.));
#134 = DEFINITIONAL_REPRESENTATION('',(#135),#138);
#135 = B_SPLINE_CURVE_WITH_KNOTS('',1,(#136,#137),.UNSPECIFIED.,.F.,.F.,
  (2,2),(-5.5000006,6.E-07),.PIECEWISE_BEZIER_KNOTS.);
#136 = CARTESIAN_POINT('',(6.5000006,-6.77347768875));
#137 = CARTESIAN_POINT('',(0.9999994,-6.77347768875));
#138 = ( GEOMETRIC_REPRESENTATION_CONTEXT(2) 
PARAMETRIC_REPRESENTATION_CONTEXT() REPRESENTATION_CONTEXT('2D SPACE',''
  ) );
#139 = FACE_BOUND('',#140,.F.);
#140 = EDGE_LOOP('',(#141));
#141 = ORIENTED_EDGE('',*,*,#142,.F.);
#142 = EDGE_CURVE('',#143,#143,#145,.T.);
#143 = VERTEX_POINT('',#144);
#144 = CARTESIAN_POINT('',(6.8,1.959434878636E-16,1.95));
#145 = SURFACE_CURVE('',#146,(#209,#304),.PCURVE_S1.);
#146 = B_SPLINE_CURVE_WITH_KNOTS('',7,(#147,#148,#149,#150,#151,#152,
    #153,#154,#155,#156,#157,#158,#159,#160,#161,#162,#163,#164,#165,
    #166,#167,#168,#169,#170,#171,#172,#173,#174,#175,#176,#177,#178,
    #179,#180,#181,#182,#183,#184,#185,#186,#187,#188,#189,#190,#191,
    #192,#193,#194,#195,#196,#197,#198,#199,#200,#201,#202,#203,#204,
    #205,#206,#207,#208),.UNSPECIFIED.,.T.,.F.,(8,6,6,6,6,6,6,6,6,6,8),(
    0.,0.197283353486,0.350376525436,0.500407927187,0.803217281473,1.,
    1.196802753564,1.349522976833,1.499187591755,1.801257602903,
    1.997563983713),.UNSPECIFIED.);
#147 = CARTESIAN_POINT('',(6.8,-3.330669073875E-16,1.95));
#148 = CARTESIAN_POINT('',(6.8,-7.75073090758E-02,1.95));
#149 = CARTESIAN_POINT('',(6.798969483078,-0.154653675156,1.958760923963
    ));
#150 = CARTESIAN_POINT('',(6.796924865465,-0.230071257072,1.976134994938
    ));
#151 = CARTESIAN_POINT('',(6.793993346452,-0.302441524666,2.001655525425
    ));
#152 = CARTESIAN_POINT('',(6.790397385668,-0.370561654923,2.034547859035
    ));
#153 = CARTESIAN_POINT('',(6.786412599486,-0.433426430826,2.073740437082
    ));
#154 = CARTESIAN_POINT('',(6.779106955877,-0.53447980346,2.152125467756)
  );
#155 = CARTESIAN_POINT('',(6.775825027398,-0.575211151217,2.189483061242
    ));
#156 = CARTESIAN_POINT('',(6.772557258904,-0.612381434122,2.229545021682
    ));
#157 = CARTESIAN_POINT('',(6.769399549796,-0.645887984004,2.271926368124
    ));
#158 = CARTESIAN_POINT('',(6.766436772117,-0.67566035134,2.316258893918)
  );
#159 = CARTESIAN_POINT('',(6.763739811557,-0.701656939997,2.362189173096
    ));
#160 = CARTESIAN_POINT('',(6.759032948006,-0.745622263433,2.455620241266
    ));
#161 = CARTESIAN_POINT('',(6.757009057316,-0.763754711347,2.503099601256
    ));
#162 = CARTESIAN_POINT('',(6.755340687097,-0.778257035935,2.551543155064
    ));
#163 = CARTESIAN_POINT('',(6.754064943427,-0.78913031048,2.600695047747)
  );
#164 = CARTESIAN_POINT('',(6.75320639935,-0.796377111682,2.650311405822)
  );
#165 = CARTESIAN_POINT('',(6.752777206454,-0.8,2.700156682013));
#166 = CARTESIAN_POINT('',(6.752777206454,-0.8,2.850599092982));
#167 = CARTESIAN_POINT('',(6.754525616606,-0.785241403653,2.951404028671
    ));
#168 = CARTESIAN_POINT('',(6.758035575482,-0.755615536471,3.050398988171
    ));
#169 = CARTESIAN_POINT('',(6.763106080653,-0.711072254562,3.145465732107
    ));
#170 = CARTESIAN_POINT('',(6.769305682556,-0.651719119947,3.234275559848
    ));
#171 = CARTESIAN_POINT('',(6.775969603109,-0.577876401398,3.314212680374
    ));
#172 = CARTESIAN_POINT('',(6.786412327932,-0.433430187026,3.426256649311
    ));
#173 = CARTESIAN_POINT('',(6.790397195762,-0.370565253825,3.465450618968
    ));
#174 = CARTESIAN_POINT('',(6.793993441901,-0.302441634066,3.49834547852)
  );
#175 = CARTESIAN_POINT('',(6.796925145608,-0.230066402253,3.523867409032
    ));
#176 = CARTESIAN_POINT('',(6.798969691514,-0.154645118145,3.541240858616
    ));
#177 = CARTESIAN_POINT('',(6.8,-7.749941862795E-02,3.55));
#178 = CARTESIAN_POINT('',(6.8,7.750730907579E-02,3.55));
#179 = CARTESIAN_POINT('',(6.798969483078,0.154653675156,3.541239076037)
  );
#180 = CARTESIAN_POINT('',(6.796924865465,0.230071257072,3.523865005062)
  );
#181 = CARTESIAN_POINT('',(6.793993346452,0.302441524666,3.498344474575)
  );
#182 = CARTESIAN_POINT('',(6.790397385668,0.370561654923,3.465452140965)
  );
#183 = CARTESIAN_POINT('',(6.786412599486,0.433426430826,3.426259562918)
  );
#184 = CARTESIAN_POINT('',(6.779106955877,0.53447980346,3.347874532244)
  );
#185 = CARTESIAN_POINT('',(6.775825027398,0.575211151217,3.310516938758)
  );
#186 = CARTESIAN_POINT('',(6.772557258904,0.612381434122,3.270454978318)
  );
#187 = CARTESIAN_POINT('',(6.769399549796,0.645887984004,3.228073631876)
  );
#188 = CARTESIAN_POINT('',(6.766436772117,0.67566035134,3.183741106082)
  );
#189 = CARTESIAN_POINT('',(6.763739811557,0.701656939997,3.137810826904)
  );
#190 = CARTESIAN_POINT('',(6.759032968194,0.745622074872,3.044380159448)
  );
#191 = CARTESIAN_POINT('',(6.757009075783,0.763754557864,2.996900856065)
  );
#192 = CARTESIAN_POINT('',(6.755340693727,0.778256986828,2.948457145078)
  );
#193 = CARTESIAN_POINT('',(6.754064939596,0.789130337687,2.899305018742)
  );
#194 = CARTESIAN_POINT('',(6.753206393653,0.796377148243,2.849688476522)
  );
#195 = CARTESIAN_POINT('',(6.752777206454,0.8,2.799843162039));
#196 = CARTESIAN_POINT('',(6.752777206454,0.8,2.649400907018));
#197 = CARTESIAN_POINT('',(6.754525616606,0.785241403653,2.548595971329)
  );
#198 = CARTESIAN_POINT('',(6.758035575482,0.755615536471,2.449601011829)
  );
#199 = CARTESIAN_POINT('',(6.763106080653,0.711072254562,2.354534267893)
  );
#200 = CARTESIAN_POINT('',(6.769305682556,0.651719119947,2.265724440152)
  );
#201 = CARTESIAN_POINT('',(6.775969603109,0.577876401398,2.185787319626)
  );
#202 = CARTESIAN_POINT('',(6.78641241446,0.433428990162,2.073742422306)
  );
#203 = CARTESIAN_POINT('',(6.790397300063,0.370563526904,2.034548447192)
  );
#204 = CARTESIAN_POINT('',(6.793993472681,0.30244042942,2.001654283319)
  );
#205 = CARTESIAN_POINT('',(6.796925095061,0.230066657998,1.976133038679)
  );
#206 = CARTESIAN_POINT('',(6.798969631427,0.154646988554,1.958759660122)
  );
#207 = CARTESIAN_POINT('',(6.8,7.750171180583E-02,1.95));
#208 = CARTESIAN_POINT('',(6.8,-3.795167116084E-16,1.95));
#209 = PCURVE('',#33,#210);
#210 = DEFINITIONAL_REPRESENTATION('',(#211),#303);
#211 = B_SPLINE_CURVE_WITH_KNOTS('',3,(#212,#213,#214,#215,#216,#217,
    #218,#219,#220,#221,#222,#223,#224,#225,#226,#227,#228,#229,#230,
    #231,#232,#233,#234,#235,#236,#237,#238,#239,#240,#241,#242,#243,
    #244,#245,#246,#247,#248,#249,#250,#251,#252,#253,#254,#255,#256,
    #257,#258,#259,#260,#261,#262,#263,#264,#265,#266,#267,#268,#269,
    #270,#271,#272,#273,#274,#275,#276,#277,#278,#279,#280,#281,#282,
    #283,#284,#285,#286,#287,#288,#289,#290,#291,#292,#293,#294,#295,
    #296,#297,#298,#299,#300,#301,#302),.UNSPECIFIED.,.T.,.F.,(4,1,1,1,1
    ,1,1,1,1,1,1,1,1,1,1,1,1,1,1,1,1,1,1,1,1,1,1,1,1,1,1,1,1,1,1,1,1,1,1
    ,1,1,1,1,1,1,1,1,1,1,1,1,1,1,1,1,1,1,1,1,1,1,1,1,1,1,1,1,1,1,1,1,1,1
    ,1,1,1,1,1,1,1,1,1,1,1,1,1,1,1,4),(0.,2.269959072401E-02,
    4.539918144803E-02,6.809877217204E-02,9.079836289606E-02,
    0.11349795362,0.136197544344,0.158897135068,0.181596725792,
    0.204296316516,0.22699590724,0.249695497964,0.272395088688,
    0.295094679412,0.317794270136,0.34049386086,0.363193451584,
    0.385893042308,0.408592633032,0.431292223756,0.45399181448,
    0.476691405204,0.499390995928,0.522090586652,0.544790177376,
    0.5674897681,0.590189358824,0.612888949548,0.635588540272,
    0.658288130996,0.68098772172,0.703687312444,0.726386903168,
    0.749086493892,0.771786084616,0.794485675341,0.817185266065,
    0.839884856789,0.862584447513,0.885284038237,0.907983628961,
    0.930683219685,0.953382810409,0.976082401133,0.998781991857,
    1.021481582581,1.044181173305,1.066880764029,1.089580354753,
    1.112279945477,1.134979536201,1.157679126925,1.180378717649,
    1.203078308373,1.225777899097,1.248477489821,1.271177080545,
    1.293876671269,1.316576261993,1.339275852717,1.361975443441,
    1.384675034165,1.407374624889,1.430074215613,1.452773806337,
    1.475473397061,1.498172987785,1.520872578509,1.543572169233,
    1.566271759957,1.588971350681,1.611670941405,1.634370532129,
    1.657070122853,1.679769713577,1.702469304301,1.725168895025,
    1.747868485749,1.770568076473,1.793267667197,1.815967257921,
    1.838666848645,1.861366439369,1.884066030093,1.906765620817,
    1.929465211541,1.952164802265,1.974864392989,1.997563983713),
  .QUASI_UNIFORM_KNOTS.);
#212 = CARTESIAN_POINT('',(-6.28318530718,-1.95));
#213 = CARTESIAN_POINT('',(-6.280125055455,-1.949996143001));
#214 = CARTESIAN_POINT('',(-6.27401488692,-1.951626892363));
#215 = CARTESIAN_POINT('',(-6.264941869983,-1.95886689893));
#216 = CARTESIAN_POINT('',(-6.256023067348,-1.970797290427));
#217 = CARTESIAN_POINT('',(-6.247317841868,-1.987251534398));
#218 = CARTESIAN_POINT('',(-6.238883234217,-2.008022204721));
#219 = CARTESIAN_POINT('',(-6.230772997444,-2.032856819925));
#220 = CARTESIAN_POINT('',(-6.223037787242,-2.061455715766));
#221 = CARTESIAN_POINT('',(-6.215721756037,-2.09348809242));
#222 = CARTESIAN_POINT('',(-6.208872136354,-2.128533337707));
#223 = CARTESIAN_POINT('',(-6.202493039845,-2.166342621584));
#224 = CARTESIAN_POINT('',(-6.196592945568,-2.206671282347));
#225 = CARTESIAN_POINT('',(-6.19118375548,-2.249249240467));
#226 = CARTESIAN_POINT('',(-6.186274054797,-2.293822053689));
#227 = CARTESIAN_POINT('',(-6.181871025809,-2.340138879444));
#228 = CARTESIAN_POINT('',(-6.177979922507,-2.387957409855));
#229 = CARTESIAN_POINT('',(-6.174604647735,-2.43703400903));
#230 = CARTESIAN_POINT('',(-6.17174429675,-2.48718861132));
#231 = CARTESIAN_POINT('',(-6.169399534446,-2.538229496607));
#232 = CARTESIAN_POINT('',(-6.167570608445,-2.589972342128));
#233 = CARTESIAN_POINT('',(-6.166257667237,-2.642236764033));
#234 = CARTESIAN_POINT('',(-6.165460720623,-2.694849284943));
#235 = CARTESIAN_POINT('',(-6.165179704463,-2.747630540423));
#236 = CARTESIAN_POINT('',(-6.165414498176,-2.800439103748));
#237 = CARTESIAN_POINT('',(-6.166166354627,-2.853132675407));
#238 = CARTESIAN_POINT('',(-6.167436143431,-2.905518416167));
#239 = CARTESIAN_POINT('',(-6.169224243567,-2.957412116817));
#240 = CARTESIAN_POINT('',(-6.171530475916,-3.008621641853));
#241 = CARTESIAN_POINT('',(-6.17435402769,-3.058950570826));
#242 = CARTESIAN_POINT('',(-6.177693378107,-3.108196395218));
#243 = CARTESIAN_POINT('',(-6.181546222138,-3.156150137944));
#244 = CARTESIAN_POINT('',(-6.185909381577,-3.202595486784));
#245 = CARTESIAN_POINT('',(-6.190778735217,-3.247308126959));
#246 = CARTESIAN_POINT('',(-6.196149036852,-3.290054358246));
#247 = CARTESIAN_POINT('',(-6.202014099126,-3.330591887369));
#248 = CARTESIAN_POINT('',(-6.208365546592,-3.368662064848));
#249 = CARTESIAN_POINT('',(-6.215196830186,-3.404013516417));
#250 = CARTESIAN_POINT('',(-6.222498734807,-3.436361751799));
#251 = CARTESIAN_POINT('',(-6.230225666618,-3.465288003989));
#252 = CARTESIAN_POINT('',(-6.238332931121,-3.490452778129));
#253 = CARTESIAN_POINT('',(-6.246769824442,-3.511551214098));
#254 = CARTESIAN_POINT('',(-6.255482091678,-3.528325776643));
#255 = CARTESIAN_POINT('',(-6.264412939831,-3.540563686928));
#256 = CARTESIAN_POINT('',(-6.273500222407,-3.548098047501));
#257 = CARTESIAN_POINT('',(-6.282690147452,-3.550809438735));
#258 = CARTESIAN_POINT('',(-6.291888493772,-3.548621922576));
#259 = CARTESIAN_POINT('',(-6.300987823552,-3.541600748898));
#260 = CARTESIAN_POINT('',(-6.309937722006,-3.529862493005));
#261 = CARTESIAN_POINT('',(-6.318675038469,-3.513568797459));
#262 = CARTESIAN_POINT('',(-6.327143055272,-3.492927609996));
#263 = CARTESIAN_POINT('',(-6.335287246755,-3.468191076438));
#264 = CARTESIAN_POINT('',(-6.343056483472,-3.439659323155));
#265 = CARTESIAN_POINT('',(-6.350406100723,-3.407664017472));
#266 = CARTESIAN_POINT('',(-6.35728830756,-3.372626917821));
#267 = CARTESIAN_POINT('',(-6.363697348104,-3.334807263569));
#268 = CARTESIAN_POINT('',(-6.369625599326,-3.294447033841));
#269 = CARTESIAN_POINT('',(-6.375060755283,-3.251819751957));
#270 = CARTESIAN_POINT('',(-6.379994190881,-3.207181554609));
#271 = CARTESIAN_POINT('',(-6.384418608427,-3.160785391772));
#272 = CARTESIAN_POINT('',(-6.388328692603,-3.112875344662));
#273 = CARTESIAN_POINT('',(-6.391720449744,-3.063697340747));
#274 = CARTESIAN_POINT('',(-6.394594771462,-3.013433152894));
#275 = CARTESIAN_POINT('',(-6.39695099365,-2.962275774335));
#276 = CARTESIAN_POINT('',(-6.398788850219,-2.910411125636));
#277 = CARTESIAN_POINT('',(-6.400108186805,-2.858021025963));
#278 = CARTESIAN_POINT('',(-6.400908991235,-2.805280336091));
#279 = CARTESIAN_POINT('',(-6.401191330968,-2.752369828597));
#280 = CARTESIAN_POINT('',(-6.400955333456,-2.699431977568));
#281 = CARTESIAN_POINT('',(-6.400199735959,-2.646610097774));
#282 = CARTESIAN_POINT('',(-6.398923664381,-2.594098471024));
#283 = CARTESIAN_POINT('',(-6.397126740078,-2.542082685847));
#284 = CARTESIAN_POINT('',(-6.394809148642,-2.490756334618));
#285 = CARTESIAN_POINT('',(-6.391971716246,-2.440317344334));
#286 = CARTESIAN_POINT('',(-6.388615985025,-2.390969798195));
#287 = CARTESIAN_POINT('',(-6.384744289985,-2.342924321066));
#288 = CARTESIAN_POINT('',(-6.380359850389,-2.296398963187));
#289 = CARTESIAN_POINT('',(-6.375466835953,-2.251619855534));
#290 = CARTESIAN_POINT('',(-6.370070568725,-2.208822692709));
#291 = CARTESIAN_POINT('',(-6.364177272416,-2.168251630303));
#292 = CARTESIAN_POINT('',(-6.357795577349,-2.13016827702));
#293 = CARTESIAN_POINT('',(-6.350931553225,-2.094823557284));
#294 = CARTESIAN_POINT('',(-6.34359594623,-2.062511381284));
#295 = CARTESIAN_POINT('',(-6.335834938324,-2.03365169459));
#296 = CARTESIAN_POINT('',(-6.327693698949,-2.008584701778));
#297 = CARTESIAN_POINT('',(-6.319223496817,-1.987615444211));
#298 = CARTESIAN_POINT('',(-6.310478929398,-1.971001530733));
#299 = CARTESIAN_POINT('',(-6.301517919187,-1.958954209533));
#300 = CARTESIAN_POINT('',(-6.292400774167,-1.951642930883));
#301 = CARTESIAN_POINT('',(-6.286260568689,-1.949996052751));
#302 = CARTESIAN_POINT('',(-6.28318530718,-1.95));
#303 = ( GEOMETRIC_REPRESENTATION_CONTEXT(2) 
PARAMETRIC_REPRESENTATION_CONTEXT() REPRESENTATION_CONTEXT('2D SPACE',''
  ) );
#304 = PCURVE('',#305,#310);
#305 = CYLINDRICAL_SURFACE('',#306,0.8);
#306 = AXIS2_PLACEMENT_3D('',#307,#308,#309);
#307 = CARTESIAN_POINT('',(7.2,0.,2.75));
#308 = DIRECTION('',(-1.,0.,0.));
#309 = DIRECTION('',(0.,0.,-1.));
#310 = DEFINITIONAL_REPRESENTATION('',(#311),#403);
#311 = B_SPLINE_CURVE_WITH_KNOTS('',3,(#312,#313,#314,#315,#316,#317,
    #318,#319,#320,#321,#322,#323,#324,#325,#326,#327,#328,#329,#330,
    #331,#332,#333,#334,#335,#336,#337,#338,#339,#340,#341,#342,#343,
    #344,#345,#346,#347,#348,#349,#350,#351,#352,#353,#354,#355,#356,
    #357,#358,#359,#360,#361,#362,#363,#364,#365,#366,#367,#368,#369,
    #370,#371,#372,#373,#374,#375,#376,#377,#378,#379,#380,#381,#382,
    #383,#384,#385,#386,#387,#388,#389,#390,#391,#392,#393,#394,#395,
    #396,#397,#398,#399,#400,#401,#402),.UNSPECIFIED.,.F.,.F.,(4,1,1,1,1
    ,1,1,1,1,1,1,1,1,1,1,1,1,1,1,1,1,1,1,1,1,1,1,1,1,1,1,1,1,1,1,1,1,1,1
    ,1,1,1,1,1,1,1,1,1,1,1,1,1,1,1,1,1,1,1,1,1,1,1,1,1,1,1,1,1,1,1,1,1,1
    ,1,1,1,1,1,1,1,1,1,1,1,1,1,1,1,4),(0.,2.269959072401E-02,
    4.539918144803E-02,6.809877217204E-02,9.079836289606E-02,
    0.11349795362,0.136197544344,0.158897135068,0.181596725792,
    0.204296316516,0.22699590724,0.249695497964,0.272395088688,
    0.295094679412,0.317794270136,0.34049386086,0.363193451584,
    0.385893042308,0.408592633032,0.431292223756,0.45399181448,
    0.476691405204,0.499390995928,0.522090586652,0.544790177376,
    0.5674897681,0.590189358824,0.612888949548,0.635588540272,
    0.658288130996,0.68098772172,0.703687312444,0.726386903168,
    0.749086493892,0.771786084616,0.794485675341,0.817185266065,
    0.839884856789,0.862584447513,0.885284038237,0.907983628961,
    0.930683219685,0.953382810409,0.976082401133,0.998781991857,
    1.021481582581,1.044181173305,1.066880764029,1.089580354753,
    1.112279945477,1.134979536201,1.157679126925,1.180378717649,
    1.203078308373,1.225777899097,1.248477489821,1.271177080545,
    1.293876671269,1.316576261993,1.339275852717,1.361975443441,
    1.384675034165,1.407374624889,1.430074215613,1.452773806337,
    1.475473397061,1.498172987785,1.520872578509,1.543572169233,
    1.566271759957,1.588971350681,1.611670941405,1.634370532129,
    1.657070122853,1.679769713577,1.702469304301,1.725168895025,
    1.747868485749,1.770568076473,1.793267667197,1.815967257921,
    1.838666848645,1.861366439369,1.884066030093,1.906765620817,
    1.929465211541,1.952164802265,1.974864392989,1.997563983713),
  .QUASI_UNIFORM_KNOTS.);
#312 = CARTESIAN_POINT('',(4.163336342344E-16,0.4));
#313 = CARTESIAN_POINT('',(2.601071815748E-02,0.39999874128));
#314 = CARTESIAN_POINT('',(7.794952766253E-02,0.400192034604));
#315 = CARTESIAN_POINT('',(0.155533995014,0.401039499668));
#316 = CARTESIAN_POINT('',(0.232720729717,0.402420220751));
#317 = CARTESIAN_POINT('',(0.309429163458,0.404290195231));
#318 = CARTESIAN_POINT('',(0.385570680266,0.406594362195));
#319 = CARTESIAN_POINT('',(0.461047831152,0.409266669199));
#320 = CARTESIAN_POINT('',(0.53574357256,0.412232391261));
#321 = CARTESIAN_POINT('',(0.60954882228,0.41541191458));
#322 = CARTESIAN_POINT('',(0.682245113113,0.418718274286));
#323 = CARTESIAN_POINT('',(0.754004626048,0.422083681027));
#324 = CARTESIAN_POINT('',(0.824944168462,0.425442000933));
#325 = CARTESIAN_POINT('',(0.895113207987,0.428728241048));
#326 = CARTESIAN_POINT('',(0.964571935619,0.431882680484));
#327 = CARTESIAN_POINT('',(1.033370753116,0.434850427029));
#328 = CARTESIAN_POINT('',(1.101559345923,0.437582265879));
#329 = CARTESIAN_POINT('',(1.169174298871,0.4400349144));
#330 = CARTESIAN_POINT('',(1.236325883518,0.442173677945));
#331 = CARTESIAN_POINT('',(1.303092669184,0.443968157684));
#332 = CARTESIAN_POINT('',(1.369552713027,0.445393647909));
#333 = CARTESIAN_POINT('',(1.435780583899,0.446430907862));
#334 = CARTESIAN_POINT('',(1.501853365337,0.447066195691));
#335 = CARTESIAN_POINT('',(1.567836651114,0.447291227025));
#336 = CARTESIAN_POINT('',(1.633841153125,0.447103172967));
#337 = CARTESIAN_POINT('',(1.699977028155,0.446503478593));
#338 = CARTESIAN_POINT('',(1.766294409557,0.445499336126));
#339 = CARTESIAN_POINT('',(1.832858642567,0.444103783233));
#340 = CARTESIAN_POINT('',(1.899731025455,0.442335745943));
#341 = CARTESIAN_POINT('',(1.966974742347,0.440220060378));
#342 = CARTESIAN_POINT('',(2.034654033514,0.437787456945));
#343 = CARTESIAN_POINT('',(2.102835209064,0.435074502586));
#344 = CARTESIAN_POINT('',(2.171587122677,0.432123499268));
#345 = CARTESIAN_POINT('',(2.24098212538,0.42898231469));
#346 = CARTESIAN_POINT('',(2.31109591704,0.425704207405));
#347 = CARTESIAN_POINT('',(2.382011757515,0.422347385843));
#348 = CARTESIAN_POINT('',(2.453808979477,0.418975245388));
#349 = CARTESIAN_POINT('',(2.526610850287,0.415653731694));
#350 = CARTESIAN_POINT('',(2.600528488557,0.412453919018));
#351 = CARTESIAN_POINT('',(2.675357222626,0.409462771561));
#352 = CARTESIAN_POINT('',(2.750979966693,0.406761120661));
#353 = CARTESIAN_POINT('',(2.827278454201,0.404424772155));
#354 = CARTESIAN_POINT('',(2.904151067472,0.402520879694));
#355 = CARTESIAN_POINT('',(2.98151194147,0.401105978266));
#356 = CARTESIAN_POINT('',(3.059260037888,0.400224017345));
#357 = CARTESIAN_POINT('',(3.137388008949,0.399904641733));
#358 = CARTESIAN_POINT('',(3.215562209685,0.400162388412));
#359 = CARTESIAN_POINT('',(3.293337909779,0.400985070904));
#360 = CARTESIAN_POINT('',(3.370738341022,0.40234440915));
#361 = CARTESIAN_POINT('',(3.447656522247,0.404197948953));
#362 = CARTESIAN_POINT('',(3.524010608039,0.40649042906));
#363 = CARTESIAN_POINT('',(3.599701059792,0.409155816404));
#364 = CARTESIAN_POINT('',(3.674611080843,0.412119112103));
#365 = CARTESIAN_POINT('',(3.748631282508,0.415300298925));
#366 = CARTESIAN_POINT('',(3.821542559967,0.418611844814));
#367 = CARTESIAN_POINT('',(3.893502045341,0.421984604149));
#368 = CARTESIAN_POINT('',(3.964637788928,0.425352301848));
#369 = CARTESIAN_POINT('',(4.034997074013,0.428649224477));
#370 = CARTESIAN_POINT('',(4.104641407336,0.431815122266));
#371 = CARTESIAN_POINT('',(4.173621431136,0.434794565092));
#372 = CARTESIAN_POINT('',(4.241987481114,0.437537862199));
#373 = CARTESIAN_POINT('',(4.309775915294,0.44000127297));
#374 = CARTESIAN_POINT('',(4.377097543024,0.442149750653));
#375 = CARTESIAN_POINT('',(4.444031847418,0.443952603234));
#376 = CARTESIAN_POINT('',(4.510657237971,0.445384871028));
#377 = CARTESIAN_POINT('',(4.577048760827,0.446427120441));
#378 = CARTESIAN_POINT('',(4.643283970655,0.447065472615));
#379 = CARTESIAN_POINT('',(4.709428854261,0.44729156451));
#380 = CARTESIAN_POINT('',(4.775594933711,0.447102545354));
#381 = CARTESIAN_POINT('',(4.841893218414,0.446499876224));
#382 = CARTESIAN_POINT('',(4.90837419563,0.445490824138));
#383 = CARTESIAN_POINT('',(4.975103693776,0.444088558744));
#384 = CARTESIAN_POINT('',(5.042143465267,0.442312196326));
#385 = CARTESIAN_POINT('',(5.109557171363,0.440186821323));
#386 = CARTESIAN_POINT('',(5.177409547041,0.437743469977));
#387 = CARTESIAN_POINT('',(5.245767429343,0.435019071109));
#388 = CARTESIAN_POINT('',(5.314700225085,0.432056343108));
#389 = CARTESIAN_POINT('',(5.38428092516,0.428903619401));
#390 = CARTESIAN_POINT('',(5.454585777492,0.425614677987));
#391 = CARTESIAN_POINT('',(5.525699219326,0.422248263998));
#392 = CARTESIAN_POINT('',(5.597699766413,0.418868437626));
#393 = CARTESIAN_POINT('',(5.670717752232,0.415541492652));
#394 = CARTESIAN_POINT('',(5.744850811702,0.412339797077));
#395 = CARTESIAN_POINT('',(5.819893415166,0.409350891205));
#396 = CARTESIAN_POINT('',(5.895728610096,0.406656014384));
#397 = CARTESIAN_POINT('',(5.972237728734,0.40433119234));
#398 = CARTESIAN_POINT('',(6.049320557979,0.402443725027));
#399 = CARTESIAN_POINT('',(6.126886439465,0.401049699573));
#400 = CARTESIAN_POINT('',(6.204852866986,0.400193934309));
#401 = CARTESIAN_POINT('',(6.257047031936,0.399998715051));
#402 = CARTESIAN_POINT('',(6.28318530718,0.4));
#403 = ( GEOMETRIC_REPRESENTATION_CONTEXT(2) 
PARAMETRIC_REPRESENTATION_CONTEXT() REPRESENTATION_CONTEXT('2D SPACE',''
  ) );
#404 = ADVANCED_FACE('',(#405),#45,.F.);
#405 = FACE_BOUND('',#406,.F.);
#406 = EDGE_LOOP('',(#407,#408,#429,#458));
#407 = ORIENTED_EDGE('',*,*,#21,.T.);
#408 = ORIENTED_EDGE('',*,*,#409,.F.);
#409 = EDGE_CURVE('',#410,#24,#412,.T.);
#410 = VERTEX_POINT('',#411);
#411 = CARTESIAN_POINT('',(0.6,4.585915939046,0.));
#412 = SURFACE_CURVE('',#413,(#417,#423),.PCURVE_S1.);
#413 = LINE('',#414,#415);
#414 = CARTESIAN_POINT('',(0.6,6.230083323478E-17,0.));
#415 = VECTOR('',#416,1.);
#416 = DIRECTION('',(0.,1.,0.));
#417 = PCURVE('',#45,#418);
#418 = DEFINITIONAL_REPRESENTATION('',(#419),#422);
#419 = B_SPLINE_CURVE_WITH_KNOTS('',1,(#420,#421),.UNSPECIFIED.,.F.,.F.,
  (2,2),(-6.230083323478E-17,6.8),.PIECEWISE_BEZIER_KNOTS.);
#420 = CARTESIAN_POINT('',(0.6,-1.246016664696E-16));
#421 = CARTESIAN_POINT('',(0.6,6.8));
#422 = ( GEOMETRIC_REPRESENTATION_CONTEXT(2) 
PARAMETRIC_REPRESENTATION_CONTEXT() REPRESENTATION_CONTEXT('2D SPACE',''
  ) );
#423 = PCURVE('',#129,#424);
#424 = DEFINITIONAL_REPRESENTATION('',(#425),#428);
#425 = B_SPLINE_CURVE_WITH_KNOTS('',1,(#426,#427),.UNSPECIFIED.,.F.,.F.,
  (2,2),(-6.230083323478E-17,6.8),.PIECEWISE_BEZIER_KNOTS.);
#426 = CARTESIAN_POINT('',(1.,0.));
#427 = CARTESIAN_POINT('',(1.,-6.8));
#428 = ( GEOMETRIC_REPRESENTATION_CONTEXT(2) 
PARAMETRIC_REPRESENTATION_CONTEXT() REPRESENTATION_CONTEXT('2D SPACE',''
  ) );
#429 = ORIENTED_EDGE('',*,*,#430,.F.);
#430 = EDGE_CURVE('',#431,#410,#433,.T.);
#431 = VERTEX_POINT('',#432);
#432 = CARTESIAN_POINT('',(-0.6,4.585915939046,0.));
#433 = SURFACE_CURVE('',#434,(#439,#446),.PCURVE_S1.);
#434 = CIRCLE('',#435,4.625);
#435 = AXIS2_PLACEMENT_3D('',#436,#437,#438);
#436 = CARTESIAN_POINT('',(0.,0.,0.));
#437 = DIRECTION('',(0.,0.,1.));
#438 = DIRECTION('',(-0.12972972973,0.991549392226,0.));
#439 = PCURVE('',#45,#440);
#440 = DEFINITIONAL_REPRESENTATION('',(#441),#445);
#441 = CIRCLE('',#442,4.625);
#442 = AXIS2_PLACEMENT_2D('',#443,#444);
#443 = CARTESIAN_POINT('',(2.010941371382E-16,-1.246016664696E-16));
#444 = DIRECTION('',(-0.12972972973,0.991549392226));
#445 = ( GEOMETRIC_REPRESENTATION_CONTEXT(2) 
PARAMETRIC_REPRESENTATION_CONTEXT() REPRESENTATION_CONTEXT('2D SPACE',''
  ) );
#446 = PCURVE('',#447,#452);
#447 = CYLINDRICAL_SURFACE('',#448,4.625);
#448 = AXIS2_PLACEMENT_3D('',#449,#450,#451);
#449 = CARTESIAN_POINT('',(0.,0.,-1.));
#450 = DIRECTION('',(-0.,-0.,-1.));
#451 = DIRECTION('',(1.,0.,0.));
#452 = DEFINITIONAL_REPRESENTATION('',(#453),#457);
#453 = LINE('',#454,#455);
#454 = CARTESIAN_POINT('',(-1.700892727951,-1.));
#455 = VECTOR('',#456,1.);
#456 = DIRECTION('',(-1.,-0.));
#457 = ( GEOMETRIC_REPRESENTATION_CONTEXT(2) 
PARAMETRIC_REPRESENTATION_CONTEXT() REPRESENTATION_CONTEXT('2D SPACE',''
  ) );
#458 = ORIENTED_EDGE('',*,*,#459,.T.);
#459 = EDGE_CURVE('',#431,#22,#460,.T.);
#460 = SURFACE_CURVE('',#461,(#465,#471),.PCURVE_S1.);
#461 = LINE('',#462,#463);
#462 = CARTESIAN_POINT('',(-0.6,6.230083323478E-17,0.));
#463 = VECTOR('',#464,1.);
#464 = DIRECTION('',(0.,1.,0.));
#465 = PCURVE('',#45,#466);
#466 = DEFINITIONAL_REPRESENTATION('',(#467),#470);
#467 = B_SPLINE_CURVE_WITH_KNOTS('',1,(#468,#469),.UNSPECIFIED.,.F.,.F.,
  (2,2),(-6.230083323478E-17,6.8),.PIECEWISE_BEZIER_KNOTS.);
#468 = CARTESIAN_POINT('',(-0.6,-1.246016664696E-16));
#469 = CARTESIAN_POINT('',(-0.6,6.8));
#470 = ( GEOMETRIC_REPRESENTATION_CONTEXT(2) 
PARAMETRIC_REPRESENTATION_CONTEXT() REPRESENTATION_CONTEXT('2D SPACE',''
  ) );
#471 = PCURVE('',#72,#472);
#472 = DEFINITIONAL_REPRESENTATION('',(#473),#476);
#473 = B_SPLINE_CURVE_WITH_KNOTS('',1,(#474,#475),.UNSPECIFIED.,.F.,.F.,
  (2,2),(-6.230083323478E-17,6.8),.PIECEWISE_BEZIER_KNOTS.);
#474 = CARTESIAN_POINT('',(1.,0.));
#475 = CARTESIAN_POINT('',(1.,-6.8));
#476 = ( GEOMETRIC_REPRESENTATION_CONTEXT(2) 
PARAMETRIC_REPRESENTATION_CONTEXT() REPRESENTATION_CONTEXT('2D SPACE',''
  ) );
#477 = ADVANCED_FACE('',(#478),#72,.T.);
#478 = FACE_BOUND('',#479,.T.);
#479 = EDGE_LOOP('',(#480,#481,#502,#521));
#480 = ORIENTED_EDGE('',*,*,#57,.F.);
#481 = ORIENTED_EDGE('',*,*,#482,.F.);
#482 = EDGE_CURVE('',#483,#58,#485,.T.);
#483 = VERTEX_POINT('',#484);
#484 = CARTESIAN_POINT('',(-0.6,4.585915939046,5.5));
#485 = SURFACE_CURVE('',#486,(#490,#496),.PCURVE_S1.);
#486 = LINE('',#487,#488);
#487 = CARTESIAN_POINT('',(-0.6,6.230083323478E-17,5.5));
#488 = VECTOR('',#489,1.);
#489 = DIRECTION('',(0.,1.,0.));
#490 = PCURVE('',#72,#491);
#491 = DEFINITIONAL_REPRESENTATION('',(#492),#495);
#492 = B_SPLINE_CURVE_WITH_KNOTS('',1,(#493,#494),.UNSPECIFIED.,.F.,.F.,
  (2,2),(-6.230083323478E-17,6.8),.PIECEWISE_BEZIER_KNOTS.);
#493 = CARTESIAN_POINT('',(6.5,0.));
#494 = CARTESIAN_POINT('',(6.5,-6.8));
#495 = ( GEOMETRIC_REPRESENTATION_CONTEXT(2) 
PARAMETRIC_REPRESENTATION_CONTEXT() REPRESENTATION_CONTEXT('2D SPACE',''
  ) );
#496 = PCURVE('',#100,#497);
#497 = DEFINITIONAL_REPRESENTATION('',(#498),#501);
#498 = B_SPLINE_CURVE_WITH_KNOTS('',1,(#499,#500),.UNSPECIFIED.,.F.,.F.,
  (2,2),(-6.230083323478E-17,6.8),.PIECEWISE_BEZIER_KNOTS.);
#499 = CARTESIAN_POINT('',(-0.6,-1.246016664696E-16));
#500 = CARTESIAN_POINT('',(-0.6,6.8));
#501 = ( GEOMETRIC_REPRESENTATION_CONTEXT(2) 
PARAMETRIC_REPRESENTATION_CONTEXT() REPRESENTATION_CONTEXT('2D SPACE',''
  ) );
#502 = ORIENTED_EDGE('',*,*,#503,.T.);
#503 = EDGE_CURVE('',#483,#431,#504,.T.);
#504 = SURFACE_CURVE('',#505,(#509,#515),.PCURVE_S1.);
#505 = LINE('',#506,#507);
#506 = CARTESIAN_POINT('',(-0.6,4.585915939046,-1.));
#507 = VECTOR('',#508,1.);
#508 = DIRECTION('',(-0.,-0.,-1.));
#509 = PCURVE('',#72,#510);
#510 = DEFINITIONAL_REPRESENTATION('',(#511),#514);
#511 = B_SPLINE_CURVE_WITH_KNOTS('',1,(#512,#513),.UNSPECIFIED.,.F.,.F.,
  (2,2),(-6.5000006,-0.9999994),.PIECEWISE_BEZIER_KNOTS.);
#512 = CARTESIAN_POINT('',(6.5000006,-4.585915939046));
#513 = CARTESIAN_POINT('',(0.9999994,-4.585915939046));
#514 = ( GEOMETRIC_REPRESENTATION_CONTEXT(2) 
PARAMETRIC_REPRESENTATION_CONTEXT() REPRESENTATION_CONTEXT('2D SPACE',''
  ) );
#515 = PCURVE('',#447,#516);
#516 = DEFINITIONAL_REPRESENTATION('',(#517),#520);
#517 = B_SPLINE_CURVE_WITH_KNOTS('',1,(#518,#519),.UNSPECIFIED.,.F.,.F.,
  (2,2),(-6.5,-1.),.PIECEWISE_BEZIER_KNOTS.);
#518 = CARTESIAN_POINT('',(-1.700892727951,-6.5));
#519 = CARTESIAN_POINT('',(-1.700892727951,-1.));
#520 = ( GEOMETRIC_REPRESENTATION_CONTEXT(2) 
PARAMETRIC_REPRESENTATION_CONTEXT() REPRESENTATION_CONTEXT('2D SPACE',''
  ) );
#521 = ORIENTED_EDGE('',*,*,#459,.T.);
#522 = ADVANCED_FACE('',(#523),#129,.F.);
#523 = FACE_BOUND('',#524,.F.);
#524 = EDGE_LOOP('',(#525,#526,#547,#566));
#525 = ORIENTED_EDGE('',*,*,#116,.F.);
#526 = ORIENTED_EDGE('',*,*,#527,.F.);
#527 = EDGE_CURVE('',#528,#84,#530,.T.);
#528 = VERTEX_POINT('',#529);
#529 = CARTESIAN_POINT('',(0.6,4.585915939046,5.5));
#530 = SURFACE_CURVE('',#531,(#535,#541),.PCURVE_S1.);
#531 = LINE('',#532,#533);
#532 = CARTESIAN_POINT('',(0.6,6.230083323478E-17,5.5));
#533 = VECTOR('',#534,1.);
#534 = DIRECTION('',(0.,1.,0.));
#535 = PCURVE('',#129,#536);
#536 = DEFINITIONAL_REPRESENTATION('',(#537),#540);
#537 = B_SPLINE_CURVE_WITH_KNOTS('',1,(#538,#539),.UNSPECIFIED.,.F.,.F.,
  (2,2),(-6.230083323478E-17,6.8),.PIECEWISE_BEZIER_KNOTS.);
#538 = CARTESIAN_POINT('',(6.5,0.));
#539 = CARTESIAN_POINT('',(6.5,-6.8));
#540 = ( GEOMETRIC_REPRESENTATION_CONTEXT(2) 
PARAMETRIC_REPRESENTATION_CONTEXT() REPRESENTATION_CONTEXT('2D SPACE',''
  ) );
#541 = PCURVE('',#100,#542);
#542 = DEFINITIONAL_REPRESENTATION('',(#543),#546);
#543 = B_SPLINE_CURVE_WITH_KNOTS('',1,(#544,#545),.UNSPECIFIED.,.F.,.F.,
  (2,2),(-6.230083323478E-17,6.8),.PIECEWISE_BEZIER_KNOTS.);
#544 = CARTESIAN_POINT('',(0.6,-1.246016664696E-16));
#545 = CARTESIAN_POINT('',(0.6,6.8));
#546 = ( GEOMETRIC_REPRESENTATION_CONTEXT(2) 
PARAMETRIC_REPRESENTATION_CONTEXT() REPRESENTATION_CONTEXT('2D SPACE',''
  ) );
#547 = ORIENTED_EDGE('',*,*,#548,.T.);
#548 = EDGE_CURVE('',#528,#410,#549,.T.);
#549 = SURFACE_CURVE('',#550,(#554,#560),.PCURVE_S1.);
#550 = LINE('',#551,#552);
#551 = CARTESIAN_POINT('',(0.6,4.585915939046,-1.));
#552 = VECTOR('',#553,1.);
#553 = DIRECTION('',(-0.,-0.,-1.));
#554 = PCURVE('',#129,#555);
#555 = DEFINITIONAL_REPRESENTATION('',(#556),#559);
#556 = B_SPLINE_CURVE_WITH_KNOTS('',1,(#557,#558),.UNSPECIFIED.,.F.,.F.,
  (2,2),(-6.5000006,-0.9999994),.PIECEWISE_BEZIER_KNOTS.);
#557 = CARTESIAN_POINT('',(6.5000006,-4.585915939046));
#558 = CARTESIAN_POINT('',(0.9999994,-4.585915939046));
#559 = ( GEOMETRIC_REPRESENTATION_CONTEXT(2) 
PARAMETRIC_REPRESENTATION_CONTEXT() REPRESENTATION_CONTEXT('2D SPACE',''
  ) );
#560 = PCURVE('',#447,#561);
#561 = DEFINITIONAL_REPRESENTATION('',(#562),#565);
#562 = B_SPLINE_CURVE_WITH_KNOTS('',1,(#563,#564),.UNSPECIFIED.,.F.,.F.,
  (2,2),(-6.5,-1.),.PIECEWISE_BEZIER_KNOTS.);
#563 = CARTESIAN_POINT('',(-7.723885232819,-6.5));
#564 = CARTESIAN_POINT('',(-7.723885232819,-1.));
#565 = ( GEOMETRIC_REPRESENTATION_CONTEXT(2) 
PARAMETRIC_REPRESENTATION_CONTEXT() REPRESENTATION_CONTEXT('2D SPACE',''
  ) );
#566 = ORIENTED_EDGE('',*,*,#409,.T.);
#567 = ADVANCED_FACE('',(#568),#100,.T.);
#568 = FACE_BOUND('',#569,.T.);
#569 = EDGE_LOOP('',(#570,#571,#572,#573));
#570 = ORIENTED_EDGE('',*,*,#482,.T.);
#571 = ORIENTED_EDGE('',*,*,#83,.F.);
#572 = ORIENTED_EDGE('',*,*,#527,.F.);
#573 = ORIENTED_EDGE('',*,*,#574,.T.);
#574 = EDGE_CURVE('',#528,#483,#575,.T.);
#575 = SURFACE_CURVE('',#576,(#581,#592),.PCURVE_S1.);
#576 = CIRCLE('',#577,4.625);
#577 = AXIS2_PLACEMENT_3D('',#578,#579,#580);
#578 = CARTESIAN_POINT('',(0.,0.,5.5));
#579 = DIRECTION('',(0.,0.,-1.));
#580 = DIRECTION('',(0.12972972973,0.991549392226,0.));
#581 = PCURVE('',#100,#582);
#582 = DEFINITIONAL_REPRESENTATION('',(#583),#591);
#583 = ( BOUNDED_CURVE() B_SPLINE_CURVE(2,(#584,#585,#586,#587,#588,#589
,#590),.UNSPECIFIED.,.T.,.F.) B_SPLINE_CURVE_WITH_KNOTS((1,2,2,2,2,1),(
    -2.094395102393,0.,2.094395102393,4.188790204786,6.28318530718,
8.377580409573),.UNSPECIFIED.) CURVE() GEOMETRIC_REPRESENTATION_ITEM() 
RATIONAL_B_SPLINE_CURVE((1.,0.5,1.,0.5,1.,0.5,1.)) REPRESENTATION_ITEM(
  '') );
#584 = CARTESIAN_POINT('',(0.6,4.585915939046));
#585 = CARTESIAN_POINT('',(8.543039405668,3.546685454505));
#586 = CARTESIAN_POINT('',(3.671519702834,-2.812573211794));
#587 = CARTESIAN_POINT('',(-1.2,-9.171831878093));
#588 = CARTESIAN_POINT('',(-4.271519702834,-1.773342727253));
#589 = CARTESIAN_POINT('',(-7.343039405668,5.625146423588));
#590 = CARTESIAN_POINT('',(0.6,4.585915939046));
#591 = ( GEOMETRIC_REPRESENTATION_CONTEXT(2) 
PARAMETRIC_REPRESENTATION_CONTEXT() REPRESENTATION_CONTEXT('2D SPACE',''
  ) );
#592 = PCURVE('',#447,#593);
#593 = DEFINITIONAL_REPRESENTATION('',(#594),#598);
#594 = LINE('',#595,#596);
#595 = CARTESIAN_POINT('',(-7.723885232819,-6.5));
#596 = VECTOR('',#597,1.);
#597 = DIRECTION('',(1.,-0.));
#598 = ( GEOMETRIC_REPRESENTATION_CONTEXT(2) 
PARAMETRIC_REPRESENTATION_CONTEXT() REPRESENTATION_CONTEXT('2D SPACE',''
  ) );
#599 = ADVANCED_FACE('',(#600),#305,.F.);
#600 = FACE_BOUND('',#601,.F.);
#601 = EDGE_LOOP('',(#602,#804,#825,#826));
#602 = ORIENTED_EDGE('',*,*,#603,.F.);
#603 = EDGE_CURVE('',#604,#604,#606,.T.);
#604 = VERTEX_POINT('',#605);
#605 = CARTESIAN_POINT('',(4.625,1.959434878636E-16,1.95));
#606 = SURFACE_CURVE('',#607,(#658,#731),.PCURVE_S1.);
#607 = B_SPLINE_CURVE_WITH_KNOTS('',7,(#608,#609,#610,#611,#612,#613,
    #614,#615,#616,#617,#618,#619,#620,#621,#622,#623,#624,#625,#626,
    #627,#628,#629,#630,#631,#632,#633,#634,#635,#636,#637,#638,#639,
    #640,#641,#642,#643,#644,#645,#646,#647,#648,#649,#650,#651,#652,
    #653,#654,#655,#656,#657),.UNSPECIFIED.,.T.,.F.,(8,6,6,6,6,6,6,6,8),
  (0.,0.276887638676,0.499583434302,0.802518150049,1.,1.278952022138,
    1.503302705807,1.808498482814,2.007465322485),.UNSPECIFIED.);
#608 = CARTESIAN_POINT('',(4.625,-4.440892098501E-16,1.95));
#609 = CARTESIAN_POINT('',(4.625,-0.109451496105,1.95));
#610 = CARTESIAN_POINT('',(4.621977959022,-0.217379010139,1.967470155896
    ));
#611 = CARTESIAN_POINT('',(4.616086459381,-0.320440814646,2.001535754837
    ));
#612 = CARTESIAN_POINT('',(4.608011042773,-0.415592425198,2.050538997847
    ));
#613 = CARTESIAN_POINT('',(4.598871331106,-0.500286073838,2.112084046096
    ));
#614 = CARTESIAN_POINT('',(4.589798640105,-0.572689408393,2.183051730515
    ));
#615 = CARTESIAN_POINT('',(4.575003159355,-0.679926201193,2.321300570754
    ));
#616 = CARTESIAN_POINT('',(4.568894308919,-0.719904780467,2.387313864806
    ));
#617 = CARTESIAN_POINT('',(4.563634503637,-0.751939774517,2.456672682259
    ));
#618 = CARTESIAN_POINT('',(4.559504461497,-0.775975460799,2.528450533634
    ));
#619 = CARTESIAN_POINT('',(4.556691318287,-0.79199476244,2.601797919469)
  );
#620 = CARTESIAN_POINT('',(4.555285391718,-0.8,2.675909998282));
#621 = CARTESIAN_POINT('',(4.555285391718,-0.8,2.850785169954));
#622 = CARTESIAN_POINT('',(4.557886860669,-0.78518674813,2.951742280759)
  );
#623 = CARTESIAN_POINT('',(4.563106011756,-0.755469359996,3.050823585876
    ));
#624 = CARTESIAN_POINT('',(4.570631641193,-0.710834058991,3.145891293594
    ));
#625 = CARTESIAN_POINT('',(4.579801737815,-0.651434805514,3.234612741054
    ));
#626 = CARTESIAN_POINT('',(4.589624929759,-0.577650721665,3.314387735519
    ));
#627 = CARTESIAN_POINT('',(4.605004667383,-0.433398796309,3.426280998447
    ));
#628 = CARTESIAN_POINT('',(4.610877955608,-0.370510421101,3.465482558324
    ));
#629 = CARTESIAN_POINT('',(4.616171220405,-0.302378106961,3.498370631421
    ));
#630 = CARTESIAN_POINT('',(4.620481482669,-0.230010545531,3.52388019434)
  );
#631 = CARTESIAN_POINT('',(4.62348566006,-0.15460883011,3.54124406894));
#632 = CARTESIAN_POINT('',(4.625,-7.748531007285E-02,3.55));
#633 = CARTESIAN_POINT('',(4.625,0.109451496105,3.55));
#634 = CARTESIAN_POINT('',(4.621977959022,0.217379010139,3.532529844104)
  );
#635 = CARTESIAN_POINT('',(4.616086459381,0.320440814646,3.498464245163)
  );
#636 = CARTESIAN_POINT('',(4.608011042773,0.415592425198,3.449461002153)
  );
#637 = CARTESIAN_POINT('',(4.598871331106,0.500286073838,3.387915953904)
  );
#638 = CARTESIAN_POINT('',(4.589798640105,0.572689408393,3.316948269485)
  );
#639 = CARTESIAN_POINT('',(4.575003319824,0.679925038119,3.178700928671)
  );
#640 = CARTESIAN_POINT('',(4.568894426527,0.719904158322,3.112687634149)
  );
#641 = CARTESIAN_POINT('',(4.56363446945,0.751940015098,3.043327627664)
  );
#642 = CARTESIAN_POINT('',(4.559504336798,0.775976155871,2.971548095238)
  );
#643 = CARTESIAN_POINT('',(4.556691231552,0.79199528547,2.898199476409)
  );
#644 = CARTESIAN_POINT('',(4.555285391718,0.8,2.824087597164));
#645 = CARTESIAN_POINT('',(4.555285391718,0.8,2.649214830046));
#646 = CARTESIAN_POINT('',(4.557886860669,0.78518674813,2.548257719241)
  );
#647 = CARTESIAN_POINT('',(4.563106011756,0.755469359996,2.449176414124)
  );
#648 = CARTESIAN_POINT('',(4.570631641193,0.710834058991,2.354108706406)
  );
#649 = CARTESIAN_POINT('',(4.579801737815,0.651434805514,2.265387258946)
  );
#650 = CARTESIAN_POINT('',(4.589624929759,0.577650721665,2.185612264481)
  );
#651 = CARTESIAN_POINT('',(4.605005003363,0.433395645031,2.073716557171)
  );
#652 = CARTESIAN_POINT('',(4.610878221622,0.370507152348,2.034515965465)
  );
#653 = CARTESIAN_POINT('',(4.616171158786,0.302377291955,2.001629821139)
  );
#654 = CARTESIAN_POINT('',(4.620481199742,0.230013500688,1.976121436138)
  );
#655 = CARTESIAN_POINT('',(4.623485445232,0.154614800175,1.95875723284)
  );
#656 = CARTESIAN_POINT('',(4.625,7.749102442982E-02,1.95));
#657 = CARTESIAN_POINT('',(4.625,-4.684274006739E-16,1.95));
#658 = PCURVE('',#305,#659);
#659 = DEFINITIONAL_REPRESENTATION('',(#660),#730);
#660 = B_SPLINE_CURVE_WITH_KNOTS('',3,(#661,#662,#663,#664,#665,#666,
    #667,#668,#669,#670,#671,#672,#673,#674,#675,#676,#677,#678,#679,
    #680,#681,#682,#683,#684,#685,#686,#687,#688,#689,#690,#691,#692,
    #693,#694,#695,#696,#697,#698,#699,#700,#701,#702,#703,#704,#705,
    #706,#707,#708,#709,#710,#711,#712,#713,#714,#715,#716,#717,#718,
    #719,#720,#721,#722,#723,#724,#725,#726,#727,#728,#729),
  .UNSPECIFIED.,.F.,.F.,(4,1,1,1,1,1,1,1,1,1,1,1,1,1,1,1,1,1,1,1,1,1,1,1
    ,1,1,1,1,1,1,1,1,1,1,1,1,1,1,1,1,1,1,1,1,1,1,1,1,1,1,1,1,1,1,1,1,1,1
    ,1,1,1,1,1,1,1,1,4),(0.,3.041614124978E-02,6.083228249955E-02,
    9.124842374933E-02,0.121664564999,0.152080706249,0.182496847499,
    0.212912988748,0.243329129998,0.273745271248,0.304161412498,
    0.334577553748,0.364993694997,0.395409836247,0.425825977497,
    0.456242118747,0.486658259996,0.517074401246,0.547490542496,
    0.577906683746,0.608322824996,0.638738966245,0.669155107495,
    0.699571248745,0.729987389995,0.760403531244,0.790819672494,
    0.821235813744,0.851651954994,0.882068096244,0.912484237493,
    0.942900378743,0.973316519993,1.003732661243,1.034148802492,
    1.064564943742,1.094981084992,1.125397226242,1.155813367492,
    1.186229508741,1.216645649991,1.247061791241,1.277477932491,
    1.30789407374,1.33831021499,1.36872635624,1.39914249749,
    1.42955863874,1.459974779989,1.490390921239,1.520807062489,
    1.551223203739,1.581639344988,1.612055486238,1.642471627488,
    1.672887768738,1.703303909988,1.733720051237,1.764136192487,
    1.794552333737,1.824968474987,1.855384616236,1.885800757486,
    1.916216898736,1.946633039986,1.977049181235,2.007465322485),
  .QUASI_UNIFORM_KNOTS.);
#661 = CARTESIAN_POINT('',(5.551115123126E-16,2.575));
#662 = CARTESIAN_POINT('',(3.506609238575E-02,2.574995150908));
#663 = CARTESIAN_POINT('',(0.104883038255,2.575514577626));
#664 = CARTESIAN_POINT('',(0.20863181273,2.577742560054));
#665 = CARTESIAN_POINT('',(0.311381835698,2.581301904103));
#666 = CARTESIAN_POINT('',(0.413080128417,2.586001448358));
#667 = CARTESIAN_POINT('',(0.513648184928,2.591613668039));
#668 = CARTESIAN_POINT('',(0.61297708979,2.597879081657));
#669 = CARTESIAN_POINT('',(0.71091101086,2.604520289888));
#670 = CARTESIAN_POINT('',(0.80727885061,2.611258051856));
#671 = CARTESIAN_POINT('',(0.901735099874,2.617814851678));
#672 = CARTESIAN_POINT('',(0.994304447109,2.623969355144));
#673 = CARTESIAN_POINT('',(1.085898817961,2.629586502723));
#674 = CARTESIAN_POINT('',(1.176523071405,2.634494184641));
#675 = CARTESIAN_POINT('',(1.266402829619,2.638562524735));
#676 = CARTESIAN_POINT('',(1.35569451753,2.641684147712));
#677 = CARTESIAN_POINT('',(1.444566446515,2.643780169736));
#678 = CARTESIAN_POINT('',(1.533181789083,2.644798732174));
#679 = CARTESIAN_POINT('',(1.621701719485,2.644715981385));
#680 = CARTESIAN_POINT('',(1.710414660004,2.64353235781));
#681 = CARTESIAN_POINT('',(1.799446004859,2.641274356281));
#682 = CARTESIAN_POINT('',(1.888946082164,2.637997549944));
#683 = CARTESIAN_POINT('',(1.979059679978,2.633785978533));
#684 = CARTESIAN_POINT('',(2.069937144981,2.628751998349));
#685 = CARTESIAN_POINT('',(2.161735056694,2.623035471907));
#686 = CARTESIAN_POINT('',(2.254617390564,2.61680276365));
#687 = CARTESIAN_POINT('',(2.348766183823,2.610244522802));
#688 = CARTESIAN_POINT('',(2.444355635651,2.603575587292));
#689 = CARTESIAN_POINT('',(2.541666242256,2.597024416632));
#690 = CARTESIAN_POINT('',(2.640899291516,2.590844691818));
#691 = CARTESIAN_POINT('',(2.7416000747,2.585337121051));
#692 = CARTESIAN_POINT('',(2.84351363987,2.580769629026));
#693 = CARTESIAN_POINT('',(2.946418893375,2.577374623398));
#694 = CARTESIAN_POINT('',(3.050035171783,2.575331469794));
#695 = CARTESIAN_POINT('',(3.154489248745,2.574759349741));
#696 = CARTESIAN_POINT('',(3.258410816182,2.575699229638));
#697 = CARTESIAN_POINT('',(3.361261024614,2.578066606645));
#698 = CARTESIAN_POINT('',(3.463151559053,2.581724947734));
#699 = CARTESIAN_POINT('',(3.563991756825,2.586486756953));
#700 = CARTESIAN_POINT('',(3.663711645301,2.592125020542));
#701 = CARTESIAN_POINT('',(3.762199626039,2.598384266586));
#702 = CARTESIAN_POINT('',(3.859298384871,2.604992163162));
#703 = CARTESIAN_POINT('',(3.954844958377,2.611676459714));
#704 = CARTESIAN_POINT('',(4.048466478599,2.618164865974));
#705 = CARTESIAN_POINT('',(4.140298142001,2.624250423703));
#706 = CARTESIAN_POINT('',(4.231170621655,2.629797896238));
#707 = CARTESIAN_POINT('',(4.321097743303,2.634640768494));
#708 = CARTESIAN_POINT('',(4.410296552157,2.638652714911));
#709 = CARTESIAN_POINT('',(4.498920070071,2.641729523564));
#710 = CARTESIAN_POINT('',(4.587132104027,2.643794617123));
#711 = CARTESIAN_POINT('',(4.675091791159,2.644797697281));
#712 = CARTESIAN_POINT('',(4.762956067451,2.644715687089));
#713 = CARTESIAN_POINT('',(4.851010204203,2.643549045069));
#714 = CARTESIAN_POINT('',(4.939376369622,2.641323465672));
#715 = CARTESIAN_POINT('',(5.028201705017,2.638092879205));
#716 = CARTESIAN_POINT('',(5.117627705547,2.633938848485));
#717 = CARTESIAN_POINT('',(5.207801302046,2.62897043402));
#718 = CARTESIAN_POINT('',(5.298875212408,2.62332343715));
#719 = CARTESIAN_POINT('',(5.391009845828,2.617159399708));
#720 = CARTESIAN_POINT('',(5.484380690073,2.610663675119));
#721 = CARTESIAN_POINT('',(5.579164020011,2.604044671283));
#722 = CARTESIAN_POINT('',(5.675606893333,2.597526287587));
#723 = CARTESIAN_POINT('',(5.773963178538,2.591351632999));
#724 = CARTESIAN_POINT('',(5.873789020088,2.585815099228));
#725 = CARTESIAN_POINT('',(5.974836295662,2.58118160975));
#726 = CARTESIAN_POINT('',(6.076866061829,2.577681007909));
#727 = CARTESIAN_POINT('',(6.179681581244,2.575500063439));
#728 = CARTESIAN_POINT('',(6.248635469679,2.574994517134));
#729 = CARTESIAN_POINT('',(6.28318530718,2.575));
#730 = ( GEOMETRIC_REPRESENTATION_CONTEXT(2) 
PARAMETRIC_REPRESENTATION_CONTEXT() REPRESENTATION_CONTEXT('2D SPACE',''
  ) );
#731 = PCURVE('',#447,#732);
#732 = DEFINITIONAL_REPRESENTATION('',(#733),#803);
#733 = B_SPLINE_CURVE_WITH_KNOTS('',3,(#734,#735,#736,#737,#738,#739,
    #740,#741,#742,#743,#744,#745,#746,#747,#748,#749,#750,#751,#752,
    #753,#754,#755,#756,#757,#758,#759,#760,#761,#762,#763,#764,#765,
    #766,#767,#768,#769,#770,#771,#772,#773,#774,#775,#776,#777,#778,
    #779,#780,#781,#782,#783,#784,#785,#786,#787,#788,#789,#790,#791,
    #792,#793,#794,#795,#796,#797,#798,#799,#800,#801,#802),
  .UNSPECIFIED.,.F.,.F.,(4,1,1,1,1,1,1,1,1,1,1,1,1,1,1,1,1,1,1,1,1,1,1,1
    ,1,1,1,1,1,1,1,1,1,1,1,1,1,1,1,1,1,1,1,1,1,1,1,1,1,1,1,1,1,1,1,1,1,1
    ,1,1,1,1,1,1,1,1,4),(0.,3.041614124978E-02,6.083228249955E-02,
    9.124842374933E-02,0.121664564999,0.152080706249,0.182496847499,
    0.212912988748,0.243329129998,0.273745271248,0.304161412498,
    0.334577553748,0.364993694997,0.395409836247,0.425825977497,
    0.456242118747,0.486658259996,0.517074401246,0.547490542496,
    0.577906683746,0.608322824996,0.638738966245,0.669155107495,
    0.699571248745,0.729987389995,0.760403531244,0.790819672494,
    0.821235813744,0.851651954994,0.882068096244,0.912484237493,
    0.942900378743,0.973316519993,1.003732661243,1.034148802492,
    1.064564943742,1.094981084992,1.125397226242,1.155813367492,
    1.186229508741,1.216645649991,1.247061791241,1.277477932491,
    1.30789407374,1.33831021499,1.36872635624,1.39914249749,
    1.42955863874,1.459974779989,1.490390921239,1.520807062489,
    1.551223203739,1.581639344988,1.612055486238,1.642471627488,
    1.672887768738,1.703303909988,1.733720051237,1.764136192487,
    1.794552333737,1.824968474987,1.855384616236,1.885800757486,
    1.916216898736,1.946633039986,1.977049181235,2.007465322485),
  .QUASI_UNIFORM_KNOTS.);
#734 = CARTESIAN_POINT('',(-6.28318530718,-2.95));
#735 = CARTESIAN_POINT('',(-6.277118769983,-2.949992184099));
#736 = CARTESIAN_POINT('',(-6.265044170457,-2.952957660741));
#737 = CARTESIAN_POINT('',(-6.247289059017,-2.965955028968));
#738 = CARTESIAN_POINT('',(-6.230075940023,-2.987143792342));
#739 = CARTESIAN_POINT('',(-6.213576573343,-3.016038743892));
#740 = CARTESIAN_POINT('',(-6.19795197487,-3.052072533188));
#741 = CARTESIAN_POINT('',(-6.183348942519,-3.094586931833));
#742 = CARTESIAN_POINT('',(-6.169899226483,-3.142831061942));
#743 = CARTESIAN_POINT('',(-6.1577119306,-3.19598631204));
#744 = CARTESIAN_POINT('',(-6.146887779249,-3.253078567554));
#745 = CARTESIAN_POINT('',(-6.137450012029,-3.313316050678));
#746 = CARTESIAN_POINT('',(-6.129335478936,-3.376589766631));
#747 = CARTESIAN_POINT('',(-6.122578146642,-3.442273393506));
#748 = CARTESIAN_POINT('',(-6.117182543952,-3.509907715634));
#749 = CARTESIAN_POINT('',(-6.113157301629,-3.579016797425));
#750 = CARTESIAN_POINT('',(-6.110506536957,-3.649151945584));
#751 = CARTESIAN_POINT('',(-6.109232810633,-3.719876153373));
#752 = CARTESIAN_POINT('',(-6.109335952592,-3.790759956178));
#753 = CARTESIAN_POINT('',(-6.110817835555,-3.861478597024));
#754 = CARTESIAN_POINT('',(-6.113680287986,-3.931570724572));
#755 = CARTESIAN_POINT('',(-6.11792135313,-4.000583982051));
#756 = CARTESIAN_POINT('',(-6.123535676048,-4.068046110588));
#757 = CARTESIAN_POINT('',(-6.130513909346,-4.13346929116));
#758 = CARTESIAN_POINT('',(-6.138842476741,-4.19634573862));
#759 = CARTESIAN_POINT('',(-6.148502883177,-4.256143998544));
#760 = CARTESIAN_POINT('',(-6.159472311483,-4.312309557877));
#761 = CARTESIAN_POINT('',(-6.171719177271,-4.364245302244));
#762 = CARTESIAN_POINT('',(-6.185217021063,-4.411365504848));
#763 = CARTESIAN_POINT('',(-6.199920723238,-4.452971187115));
#764 = CARTESIAN_POINT('',(-6.215663828367,-4.488112962197));
#765 = CARTESIAN_POINT('',(-6.232277250196,-4.516061302004));
#766 = CARTESIAN_POINT('',(-6.249575093843,-4.536206388117));
#767 = CARTESIAN_POINT('',(-6.267342013639,-4.548090582988));
#768 = CARTESIAN_POINT('',(-6.285419951867,-4.551387849653));
#769 = CARTESIAN_POINT('',(-6.303382134111,-4.545964328362));
#770 = CARTESIAN_POINT('',(-6.320950210381,-4.53214036384));
#771 = CARTESIAN_POINT('',(-6.337971388173,-4.510296317813));
#772 = CARTESIAN_POINT('',(-6.354271483712,-4.480910485405));
#773 = CARTESIAN_POINT('',(-6.369696171198,-4.444547759246));
#774 = CARTESIAN_POINT('',(-6.384102716988,-4.401858774774));
#775 = CARTESIAN_POINT('',(-6.397363587177,-4.353586359905));
#776 = CARTESIAN_POINT('',(-6.409374361829,-4.300531761838));
#777 = CARTESIAN_POINT('',(-6.420035015588,-4.243673435624));
#778 = CARTESIAN_POINT('',(-6.429335994018,-4.183714282109));
#779 = CARTESIAN_POINT('',(-6.437331376427,-4.12079208297));
#780 = CARTESIAN_POINT('',(-6.44398943662,-4.055513404069));
#781 = CARTESIAN_POINT('',(-6.449305400315,-3.988328295332));
#782 = CARTESIAN_POINT('',(-6.453270974899,-3.91970175062));
#783 = CARTESIAN_POINT('',(-6.455882157318,-3.85007284816));
#784 = CARTESIAN_POINT('',(-6.457136509486,-3.779869239498));
#785 = CARTESIAN_POINT('',(-6.457034286183,-3.709511474145));
#786 = CARTESIAN_POINT('',(-6.455573692778,-3.639314580046));
#787 = CARTESIAN_POINT('',(-6.452752911409,-3.569730036618));
#788 = CARTESIAN_POINT('',(-6.448573808482,-3.501199928588));
#789 = CARTESIAN_POINT('',(-6.443041539908,-3.434185788137));
#790 = CARTESIAN_POINT('',(-6.436165122562,-3.369164117541));
#791 = CARTESIAN_POINT('',(-6.427957689655,-3.306630791692));
#792 = CARTESIAN_POINT('',(-6.418437043439,-3.247104250791));
#793 = CARTESIAN_POINT('',(-6.40762549116,-3.191126186157));
#794 = CARTESIAN_POINT('',(-6.395552577137,-3.139275540565));
#795 = CARTESIAN_POINT('',(-6.382247457325,-3.092134378088));
#796 = CARTESIAN_POINT('',(-6.36774530364,-3.0503555283));
#797 = CARTESIAN_POINT('',(-6.352206032542,-3.014875386473));
#798 = CARTESIAN_POINT('',(-6.335792370305,-2.986419844093));
#799 = CARTESIAN_POINT('',(-6.318688195977,-2.965594322137));
#800 = CARTESIAN_POINT('',(-6.3010881029,-2.952874534293));
#801 = CARTESIAN_POINT('',(-6.289162333547,-2.949988229957));
#802 = CARTESIAN_POINT('',(-6.28318530718,-2.95));
#803 = ( GEOMETRIC_REPRESENTATION_CONTEXT(2) 
PARAMETRIC_REPRESENTATION_CONTEXT() REPRESENTATION_CONTEXT('2D SPACE',''
  ) );
#804 = ORIENTED_EDGE('',*,*,#805,.F.);
#805 = EDGE_CURVE('',#143,#604,#806,.T.);
#806 = SEAM_CURVE('',#807,(#811,#818),.PCURVE_S1.);
#807 = LINE('',#808,#809);
#808 = CARTESIAN_POINT('',(7.2,1.959434878636E-16,1.95));
#809 = VECTOR('',#810,1.);
#810 = DIRECTION('',(-1.,0.,0.));
#811 = PCURVE('',#305,#812);
#812 = DEFINITIONAL_REPRESENTATION('',(#813),#817);
#813 = LINE('',#814,#815);
#814 = CARTESIAN_POINT('',(0.,-0.));
#815 = VECTOR('',#816,1.);
#816 = DIRECTION('',(0.,1.));
#817 = ( GEOMETRIC_REPRESENTATION_CONTEXT(2) 
PARAMETRIC_REPRESENTATION_CONTEXT() REPRESENTATION_CONTEXT('2D SPACE',''
  ) );
#818 = PCURVE('',#305,#819);
#819 = DEFINITIONAL_REPRESENTATION('',(#820),#824);
#820 = LINE('',#821,#822);
#821 = CARTESIAN_POINT('',(6.28318530718,-0.));
#822 = VECTOR('',#823,1.);
#823 = DIRECTION('',(0.,1.));
#824 = ( GEOMETRIC_REPRESENTATION_CONTEXT(2) 
PARAMETRIC_REPRESENTATION_CONTEXT() REPRESENTATION_CONTEXT('2D SPACE',''
  ) );
#825 = ORIENTED_EDGE('',*,*,#142,.T.);
#826 = ORIENTED_EDGE('',*,*,#805,.T.);
#827 = ADVANCED_FACE('',(#828,#834),#447,.F.);
#828 = FACE_BOUND('',#829,.T.);
#829 = EDGE_LOOP('',(#830,#831,#832,#833));
#830 = ORIENTED_EDGE('',*,*,#574,.F.);
#831 = ORIENTED_EDGE('',*,*,#548,.T.);
#832 = ORIENTED_EDGE('',*,*,#430,.F.);
#833 = ORIENTED_EDGE('',*,*,#503,.F.);
#834 = FACE_BOUND('',#835,.T.);
#835 = EDGE_LOOP('',(#836));
#836 = ORIENTED_EDGE('',*,*,#603,.F.);
#837 = ( GEOMETRIC_REPRESENTATION_CONTEXT(3) 
GLOBAL_UNCERTAINTY_ASSIGNED_CONTEXT((#841)) GLOBAL_UNIT_ASSIGNED_CONTEXT
((#838,#839,#840)) REPRESENTATION_CONTEXT('Context #1',
  '3D Context with UNIT and UNCERTAINTY') );
#838 = ( LENGTH_UNIT() NAMED_UNIT(*) SI_UNIT(.MILLI.,.METRE.) );
#839 = ( NAMED_UNIT(*) PLANE_ANGLE_UNIT() SI_UNIT($,.RADIAN.) );
#840 = ( NAMED_UNIT(*) SI_UNIT($,.STERADIAN.) SOLID_ANGLE_UNIT() );
#841 = UNCERTAINTY_MEASURE_WITH_UNIT(LENGTH_MEASURE(1.E-07),#838,
  'distance_accuracy_value','confusion accuracy');
#842 = PRODUCT_RELATED_PRODUCT_CATEGORY('part',$,(#7));
ENDSEC;
END-ISO-10303-21;
